<svg width="113" height="113" viewBox="0 0 113 113" fill="none" xmlns="http://www.w3.org/2000/svg">
<circle opacity="0.4" cx="56.5" cy="56.5" r="56.5" fill="url(#paint0_linear)"/>
<g clip-path="url(#clip0)">
<path d="M47.4024 82.5879H72.1874C73.2457 82.5791 74.2784 82.2688 75.159 81.6948C76.0396 81.1208 76.7299 80.3082 77.1454 79.3564L85.407 60.2382C85.7522 59.666 85.9417 59.0169 85.9576 58.3527V53.237V52.9653C85.953 51.5387 85.3712 50.1718 84.3394 49.1631C83.3075 48.1544 81.9094 47.5858 80.4503 47.5816L63.1023 47.5816L65.8541 35.1955V34.3879C65.782 33.3183 65.4001 32.2909 64.7529 31.4257L61.7232 28.7326L43.5468 46.5049C43.0299 46.995 42.6177 47.5806 42.3341 48.2278C42.0506 48.8749 41.9013 49.5707 41.895 50.2747L41.895 77.203C41.8993 78.6298 42.4809 79.9971 43.5128 81.006C44.5447 82.015 45.943 82.5837 47.4024 82.5879ZM38.9961 82.5879L38.9961 50.2747H25.3654L25.3654 82.5879H38.9961Z" fill="#21242A"/>
</g>
<defs>
<linearGradient id="paint0_linear" x1="92.095" y1="16.95" x2="40.115" y2="102.265" gradientUnits="userSpaceOnUse">
<stop stop-color="#5F656C"/>
<stop offset="1" stop-color="#5F656C" stop-opacity="0.4"/>
</linearGradient>
<clipPath id="clip0">
<rect width="60.5872" height="53.8553" fill="white" transform="translate(32.0999 28.7344)"/>
</clipPath>
</defs>
</svg>
