<svg width="13" height="11" viewBox="0 0 13 11" fill="none" xmlns="http://www.w3.org/2000/svg">
<path fill-rule="evenodd" clip-rule="evenodd" d="M3.50134 1.09961C2.39677 1.09961 1.50134 1.99504 1.50134 3.09961V6.0087C1.50134 7.11327 2.39677 8.0087 3.50134 8.0087H3.99903C4.16472 8.0087 4.29903 8.14302 4.29903 8.3087V9.93478C4.29903 10.2106 4.63999 10.3403 4.82325 10.1341L6.62299 8.10939C6.67992 8.04534 6.76152 8.0087 6.84721 8.0087H9.47634C10.5809 8.0087 11.4763 7.11327 11.4763 6.0087V3.09961C11.4763 1.99504 10.5809 1.09961 9.47634 1.09961H3.50134Z" fill="#5F656C"/>
<path d="M6.62299 8.10939L7.18355 8.60766L6.62299 8.10939ZM4.82325 10.1341L4.2627 9.63582L4.82325 10.1341ZM2.25134 3.09961C2.25134 2.40925 2.81099 1.84961 3.50134 1.84961V0.349609C1.98256 0.349609 0.751343 1.58083 0.751343 3.09961H2.25134ZM2.25134 6.0087V3.09961H0.751343V6.0087H2.25134ZM3.50134 7.2587C2.81099 7.2587 2.25134 6.69906 2.25134 6.0087H0.751343C0.751343 7.52748 1.98256 8.7587 3.50134 8.7587V7.2587ZM3.99903 7.2587H3.50134V8.7587H3.99903V7.2587ZM5.04903 9.93478V8.3087H3.54903V9.93478H5.04903ZM6.06243 7.61112L4.2627 9.63582L5.38381 10.6324L7.18355 8.60766L6.06243 7.61112ZM9.47634 7.2587H6.84721V8.7587H9.47634V7.2587ZM10.7263 6.0087C10.7263 6.69906 10.1667 7.2587 9.47634 7.2587V8.7587C10.9951 8.7587 12.2263 7.52748 12.2263 6.0087H10.7263ZM10.7263 3.09961V6.0087H12.2263V3.09961H10.7263ZM9.47634 1.84961C10.1667 1.84961 10.7263 2.40925 10.7263 3.09961H12.2263C12.2263 1.58083 10.9951 0.349609 9.47634 0.349609V1.84961ZM3.50134 1.84961H9.47634V0.349609H3.50134V1.84961ZM7.18355 8.60766C7.09815 8.70373 6.97575 8.7587 6.84721 8.7587V7.2587C6.54729 7.2587 6.26169 7.38696 6.06243 7.61112L7.18355 8.60766ZM3.54903 9.93478C3.54903 10.9003 4.74237 11.354 5.38381 10.6324L4.2627 9.63582C4.5376 9.32655 5.04903 9.52101 5.04903 9.93478H3.54903ZM3.99903 8.7587C3.7505 8.7587 3.54903 8.55723 3.54903 8.3087H5.04903C5.04903 7.7288 4.57893 7.2587 3.99903 7.2587V8.7587Z" fill="#5F656C"/>
</svg>
