<svg width="13" height="12" viewBox="0 0 13 12" fill="none" xmlns="http://www.w3.org/2000/svg">
<path d="M10.6817 1.89304C10.1645 1.32466 9.4397 1.00126 8.68034 1.00006C7.92038 1.00096 7.19484 1.32419 6.6768 1.89268C6.58157 1.99555 6.41892 1.99555 6.32369 1.89268C5.29577 0.761629 3.56561 0.696675 2.45928 1.74757C2.41025 1.79416 2.36291 1.84254 2.31734 1.89268C1.2269 3.09513 1.2269 4.95346 2.31734 6.15591L6.24079 10.3859C6.37653 10.5324 6.60273 10.5387 6.74603 10.3999C6.75072 10.3953 6.75528 10.3907 6.75972 10.3859L10.6818 6.15591C11.7721 4.95359 11.7721 3.09536 10.6817 1.89304Z" fill="#5F656C" stroke="#5F656C" stroke-width="1.5"/>
</svg>
