<svg width="14" height="14" viewBox="0 0 14 14" fill="none" xmlns="http://www.w3.org/2000/svg">
<path d="M7 0L8.20176 0.958363L9.67878 0.532843L10.4223 1.87815L11.9497 2.05025L12.1219 3.57769L13.4672 4.32122L13.0416 5.79824L14 7L13.0416 8.20176L13.4672 9.67878L12.1219 10.4223L11.9497 11.9497L10.4223 12.1219L9.67878 13.4672L8.20176 13.0416L7 14L5.79824 13.0416L4.32122 13.4672L3.57769 12.1219L2.05025 11.9497L1.87815 10.4223L0.532843 9.67878L0.958363 8.20176L0 7L0.958363 5.79824L0.532843 4.32122L1.87815 3.57769L2.05025 2.05025L3.57769 1.87815L4.32122 0.532843L5.79824 0.958363L7 0Z" fill="#B5BCC1"/>
<path d="M4.375 7.15909L6.25 8.75L9.625 5.25" stroke="#ECEEF1" stroke-width="1.5" stroke-linecap="round" stroke-linejoin="round"/>
</svg>
