<svg width="82" height="95" viewBox="0 0 82 95" fill="none" xmlns="http://www.w3.org/2000/svg">
<g filter="url(#filter0_d)">
<path d="M34.1117 50.5966V42.9008H40.1315C42.4802 42.9008 44.3727 42.2737 45.8093 41.0196C47.2687 39.7654 47.9983 38.1351 47.9983 36.1285C47.9983 34.1447 47.2801 32.5713 45.8435 31.4084C44.4298 30.2226 42.5144 29.6298 40.0973 29.6298C37.7031 29.6298 35.7648 30.2568 34.2827 31.511C32.8005 32.7651 31.9911 34.4639 31.8542 36.6073H22.3114C22.4939 31.9328 24.204 28.2274 27.442 25.4911C30.6799 22.7549 34.9896 21.3867 40.3709 21.3867C45.4331 21.3867 49.5945 22.6409 52.8552 25.1491C56.1388 27.6346 57.7806 30.8155 57.7806 34.6919C57.7806 37.5422 56.9483 39.9935 55.2837 42.0457C53.6419 44.0979 51.4415 45.409 48.6824 45.9791V46.5948C52.08 46.9824 54.7592 48.2365 56.7202 50.3572C58.7041 52.455 59.696 55.1229 59.696 58.3608C59.696 61.2111 58.8637 63.7764 57.1991 66.0566C55.5573 68.314 53.2543 70.0812 50.29 71.3582C47.3257 72.6351 43.9965 73.2736 40.3025 73.2736C34.8071 73.2736 30.3379 71.8712 26.8947 69.0665C23.4516 66.2618 21.616 62.5336 21.3879 57.8819H31.2728C31.4324 59.9798 32.3331 61.6443 33.9749 62.8757C35.6166 64.0842 37.7601 64.6885 40.4051 64.6885C42.9818 64.6885 45.0796 64.0272 46.6986 62.7046C48.3404 61.3821 49.1613 59.6719 49.1613 57.5741C49.1613 55.4079 48.3632 53.7091 46.767 52.4778C45.1708 51.2236 42.9932 50.5966 40.2341 50.5966H34.1117Z" fill="#21242A"/>
<path fill-rule="evenodd" clip-rule="evenodd" d="M34.1108 51.9841C33.3448 51.9841 32.7237 51.3631 32.7237 50.597V42.9012C32.7237 42.1351 33.3448 41.5141 34.1108 41.5141H40.1307C42.2247 41.5141 43.7673 40.9606 44.8962 39.975L44.9044 39.968C46.0424 38.99 46.6104 37.7509 46.6104 36.1289C46.6104 34.5284 46.0547 33.3651 44.9699 32.4869C44.9637 32.4818 44.9575 32.4767 44.9513 32.4715C43.8559 31.5529 42.2899 31.0173 40.0965 31.0173C37.9511 31.0173 36.3551 31.5741 35.1779 32.5703C34.0158 33.5536 33.3533 34.885 33.2377 36.6961C33.1911 37.4263 32.5852 37.9948 31.8534 37.9948H22.3106C21.9333 37.9948 21.5723 37.8411 21.3108 37.5692C21.0493 37.2973 20.9098 36.9306 20.9246 36.5536C21.1204 31.5348 22.9778 27.4473 26.5458 24.4321C30.0955 21.4323 34.7515 20 40.3701 20C45.6638 20 50.1416 21.3145 53.6957 24.0466C57.2978 26.7749 59.1668 30.3525 59.1668 34.6923C59.1668 37.8323 58.2424 40.5977 56.363 42.9163C55.3033 44.24 54.0373 45.2869 52.5795 46.0591C54.5904 46.7731 56.3188 47.8832 57.7325 49.41C59.9866 51.7965 61.0822 54.8181 61.0822 58.3612C61.0822 61.5021 60.1585 64.354 58.3192 66.874C56.5095 69.3619 53.9941 71.2729 50.8379 72.6325C47.677 73.9941 44.1573 74.6611 40.3017 74.6611C34.5651 74.6611 29.7628 73.1929 26.0178 70.1424C22.2533 67.0759 20.2479 62.9731 20.0017 57.9502C19.9831 57.571 20.1207 57.2008 20.3826 56.9258C20.6444 56.6509 21.0074 56.4952 21.3871 56.4952H31.2719C31.9972 56.4952 32.6 57.0539 32.6551 57.7771C32.7851 59.4857 33.4916 60.7784 34.8014 61.7627C36.1421 62.7476 37.9701 63.3017 40.4043 63.3017C42.7378 63.3017 44.5024 62.7073 45.8202 61.6308L45.8276 61.6248C47.1444 60.5641 47.7733 59.2502 47.7733 57.5745C47.7733 55.8012 47.1463 54.5233 45.9189 53.5765L45.9092 53.5689C44.6322 52.5655 42.7923 51.9841 40.2333 51.9841H34.1108ZM33.974 62.8761C32.3323 61.6447 31.4316 59.9802 31.2719 57.8823H21.3871C21.4102 58.3542 21.4499 58.8166 21.5061 59.2694C22.0041 63.2809 23.8 66.5467 26.8939 69.0669C30.337 71.8716 34.8063 73.2739 40.3017 73.2739C43.9957 73.2739 47.3248 72.6355 50.2891 71.3585C53.2535 70.0816 55.5565 68.3144 57.1983 66.057C58.8628 63.7768 59.6951 61.2115 59.6951 58.3612C59.6951 55.1232 58.7032 52.4554 56.7194 50.3575C55.135 48.6441 53.0816 47.4964 50.5594 46.9143C50 46.7852 49.4175 46.6839 48.8119 46.6105C48.7686 46.6052 48.7251 46.6001 48.6816 46.5952V45.9795C48.7056 45.9745 48.7296 45.9695 48.7535 45.9644C49.354 45.8371 49.9278 45.6744 50.475 45.4764C52.4113 44.7756 54.014 43.6322 55.2829 42.0461C56.9474 39.9939 57.7797 37.5426 57.7797 34.6923C57.7797 30.8159 56.138 27.635 52.8544 25.1495C49.5937 22.6412 45.4322 21.3871 40.3701 21.3871C34.9887 21.3871 30.6791 22.7553 27.4411 25.4915C24.5303 27.9514 22.8542 31.1944 22.4127 35.2206C22.3631 35.6731 22.329 36.1354 22.3106 36.6077H31.8534C31.9902 34.4643 32.7997 32.7655 34.2819 31.5114C35.764 30.2572 37.7022 29.6302 40.0965 29.6302C42.5135 29.6302 44.4289 30.223 45.8427 31.4088C47.2792 32.5717 47.9975 34.145 47.9975 36.1289C47.9975 38.1355 47.2678 39.7658 45.8085 41.02C44.3719 42.2741 42.4793 42.9012 40.1307 42.9012H34.1108V50.597H40.2333C42.9924 50.597 45.17 51.224 46.7662 52.4782C48.3623 53.7095 49.1604 55.4083 49.1604 57.5745C49.1604 59.6723 48.3395 61.3825 46.6978 62.705C45.0788 64.0276 42.981 64.6889 40.4043 64.6889C37.7592 64.6889 35.6158 64.0846 33.974 62.8761Z" fill="white"/>
</g>
<defs>
<filter id="filter0_d" x="0" y="0" width="81.0822" height="94.6611" filterUnits="userSpaceOnUse" color-interpolation-filters="sRGB">
<feFlood flood-opacity="0" result="BackgroundImageFix"/>
<feColorMatrix in="SourceAlpha" type="matrix" values="0 0 0 0 0 0 0 0 0 0 0 0 0 0 0 0 0 0 127 0"/>
<feOffset/>
<feGaussianBlur stdDeviation="10"/>
<feColorMatrix type="matrix" values="0 0 0 0 0 0 0 0 0 0 0 0 0 0 0 0 0 0 0.3 0"/>
<feBlend mode="normal" in2="BackgroundImageFix" result="effect1_dropShadow"/>
<feBlend mode="normal" in="SourceGraphic" in2="effect1_dropShadow" result="shape"/>
</filter>
</defs>
</svg>
