<svg width="79" height="95" viewBox="0 0 79 95" fill="none" xmlns="http://www.w3.org/2000/svg">
<g filter="url(#filter0_d)">
<path d="M22 38.1615C22 33.3601 23.61 29.4662 26.8299 26.4797C30.0498 23.4932 34.2401 22 39.4008 22C44.385 22 48.443 23.3554 51.5747 26.0662C54.7284 28.7541 56.3053 32.2345 56.3053 36.5074C56.3053 39.2182 55.4893 41.9176 53.8573 44.6054C52.2253 47.2703 49.3472 50.6243 45.2231 54.6676L36.0926 63.7304V64.3507H57V73H22.5624V65.7291L38.1437 49.8432C41.4959 46.4432 43.7344 43.8932 44.8592 42.1932C45.9839 40.4932 46.5463 38.8277 46.5463 37.1966C46.5463 35.198 45.8406 33.5669 44.4291 32.3034C43.0397 31.0169 41.2533 30.3736 39.0699 30.3736C36.7543 30.3736 34.8686 31.0973 33.413 32.5446C31.9795 33.9689 31.2628 35.8297 31.2628 38.127V38.3338H22V38.1615Z" fill="#21242A"/>
<path d="M57 63.3507H37.8947L45.9231 55.3816C45.9239 55.3809 45.9247 55.3801 45.9255 55.3794C50.0664 51.3194 53.0136 47.8978 54.7101 45.1277L54.712 45.1244C56.4236 42.3056 57.3053 39.4289 57.3053 36.5074C57.3053 31.9534 55.6089 28.1919 52.2263 25.3077C48.878 22.4107 44.5728 21 39.4008 21C34.0349 21 29.5865 22.559 26.1498 25.7465C22.7056 28.9411 21 33.1108 21 38.1615V38.3338C21 38.8861 21.4477 39.3338 22 39.3338H31.2628C31.815 39.3338 32.2628 38.8861 32.2628 38.3338V38.127C32.2628 36.0564 32.8997 34.4643 34.1179 33.254L34.1181 33.2537C35.3617 32.0172 36.9816 31.3736 39.0699 31.3736C41.0427 31.3736 42.5734 31.9479 43.7497 33.0371L43.7621 33.0485C44.9488 34.1108 45.5463 35.4647 45.5463 37.1966C45.5463 38.5876 45.0687 40.0642 44.0252 41.6415C42.9591 43.2527 40.7825 45.7425 37.4316 49.1412L37.4298 49.143L21.8485 65.0288C21.6651 65.2158 21.5624 65.4672 21.5624 65.7291V73C21.5624 73.5523 22.0101 74 22.5624 74H57C57.5523 74 58 73.5523 58 73V64.3507C58 63.7984 57.5523 63.3507 57 63.3507Z" stroke="#F6F7F9" stroke-width="2" stroke-linecap="round" stroke-linejoin="round"/>
</g>
<defs>
<filter id="filter0_d" x="0" y="0" width="79" height="95" filterUnits="userSpaceOnUse" color-interpolation-filters="sRGB">
<feFlood flood-opacity="0" result="BackgroundImageFix"/>
<feColorMatrix in="SourceAlpha" type="matrix" values="0 0 0 0 0 0 0 0 0 0 0 0 0 0 0 0 0 0 127 0"/>
<feOffset/>
<feGaussianBlur stdDeviation="10"/>
<feColorMatrix type="matrix" values="0 0 0 0 0 0 0 0 0 0 0 0 0 0 0 0 0 0 0.3 0"/>
<feBlend mode="normal" in2="BackgroundImageFix" result="effect1_dropShadow"/>
<feBlend mode="normal" in="SourceGraphic" in2="effect1_dropShadow" result="shape"/>
</filter>
</defs>
</svg>
